<?xml version="1.0" encoding="UTF-8" standalone="no"?>
<svg width="18px" height="16px" viewBox="0 0 18 16" version="1.1" xmlns="http://www.w3.org/2000/svg" xmlns:xlink="http://www.w3.org/1999/xlink" xmlns:sketch="http://www.bohemiancoding.com/sketch/ns">
    <!-- Generator: Sketch 3.5.1 (25234) - http://www.bohemiancoding.com/sketch -->
    <title>Group 9</title>
    <desc>Created with Sketch.</desc>
    <defs></defs>
    <g id="Friends-List" stroke="none" stroke-width="1" fill="none" fill-rule="evenodd" sketch:type="MSPage">
        <g id="Desktop-HD---FL,-Pending" sketch:type="MSArtboardGroup" transform="translate(-105.000000, -89.000000)">
            <g id="//-Channels" sketch:type="MSLayerGroup" transform="translate(78.000000, 0.000000)">
                <g id="Group-Copy-11" transform="translate(1.000000, 75.000000)" sketch:type="MSShapeGroup">
                    <g id="Group-9" transform="translate(20.000000, 7.000000)">
                        <path d="M11.8345395,22 C6.9556906,21.9908345 7.00000715,20.6906475 7.00000715,20.6906475 C7.00000715,20.6906475 7.06557549,18.9697554 7.30216542,18.4748201 C7.53875535,17.9798849 10.8273453,16.9640288 10.8273453,16.9640288 L10.839633,16.6021439 C9.44074096,16.0581583 8.61151794,14.1942446 8.61151794,11.9784173 C8.61151794,9.36092086 10.0499928,8.02588489 11.8345395,8.00120863 C11.8681798,8.0005036 11.8764388,8 11.8848992,8 C13.6717625,8.02588489 15.112151,9.36082014 15.112151,11.9784173 C15.112151,14.1942446 14.2815179,16.0581583 12.8809136,16.6021439 L12.8932014,16.9640288 C12.8932014,16.9640288 16.186223,17.9798849 16.4231151,18.4748201 C16.6600071,18.9697554 16.7256762,20.6906475 16.7256762,20.6906475 C16.7256762,20.6906475 16.7699928,21.9908345 11.8848992,21.9997986 C11.8512589,21.9998993 11.8431007,22 11.8345395,22 Z" id="Shape" stroke="#FFFFFF" stroke-width="2"></path>
                        <path d="M17,11 C17,10.4477153 17.4378814,10 18.0029293,10 L22.9970707,10 C23.5509732,10 24,10.4438648 24,11 C24,11.5522847 23.5621186,12 22.9970707,12 L18.0029293,12 C17.4490268,12 17,11.5561352 17,11 Z M18,14 C18,13.4477153 18.4509752,13 18.990778,13 L23.009222,13 C23.5564136,13 24,13.4438648 24,14 C24,14.5522847 23.5490248,15 23.009222,15 L18.990778,15 C18.4435864,15 18,14.5561352 18,14 Z M19,17 C19,16.4477153 19.4437166,16 19.9998075,16 L23.0001925,16 C23.5523709,16 24,16.4438648 24,17 C24,17.5522847 23.5562834,18 23.0001925,18 L19.9998075,18 C19.4476291,18 19,17.5561352 19,17 Z" id="Rectangle-2524" fill="#FFFFFF"></path>
                    </g>
                </g>
            </g>
        </g>
    </g>
</svg>